PathFileType	4	(X/Y/Z)	C:/Users/beibeiliu/ov580/test_trc/User3\sequence.40_training_dense_right.trc
DataRate	CameraRate	NumFrames	NumMarkers	Units	OrigDataRate	OrigDataStartFrame	OrigNumFrames
120	120	14	19	mm	120	1	72
Frame#	Time	ThumbCMC			ThumbMCP			ThumbIP			ThumbTip			IndexMCP			IndexPIP			IndexTip			MiddleMCP			MiddlePIP			MiddleTip			RingMCP			RingPIP			RingTip			PinkyMCP			PinkyPIP			PinkyTip			BackHand1			BackHand2			BackHand3	
		X0	Y0	Z0	X1	Y1	Z1	X2	Y2	Z2	X3	Y3	Z3	X4	Y4	Z4	X5	Y5	Z5	X6	Y6	Z6	X7	Y7	Z7	X8	Y8	Z8	X9	Y9	Z9	X10	Y10	Z10	X11	Y11	Z11	X12	Y12	Z12	X13	Y13	Z13	X14	Y14	Z14	X15	Y15	Z15	X16	Y16	Z16	X17	Y17	Z17	X18	Y18	Z18	
0	0	154.609	26.8524	18.1132	138.793	49.0666	-3.84519	122.13	59.5572	-27.3299	108.121	65.1539	-43.7116	146.915	4.15044	-57.1722	132.55	9.34848	-83.9645	121.753	15.9272	-102.508	140.925	-23.7774	-58.1564	127.561	-19.6735	-84.5422	103.652	-19.0055	-108.248	133.588	-39.3525	-46.1353	121.26	-44.361	-70.2504	101.295	-48.6677	-91.055	125.456	-54.1638	-24.9021	113.15	-66.6826	-41.9969	96.9186	-75.0337	-56.0219	157.525	-35.0044	0.0482256	168.699	-33.0609	29.3027	172.564	-3.62553	8.54638	
1	0.00833333	164.847	23.8254	12.6567	154.143	42.4692	-3.79851	140.82	56.9098	-31.0557	129.722	68.9295	-45.1112	152.816	-0.804241	-56.5939	142.788	7.01597	-84.579	126.965	10.8519	-105.084	143.05	-23.6144	-56.7438	126.703	-20.3039	-86.6898	104.745	-16.2548	-108.973	131.914	-38.6725	-47.5182	117.208	-46.6146	-64.6248	98.4651	-42.8418	-89.3059	120.071	-51.5033	-22.6767	104.228	-62.895	-40.6141	86.5692	-63.417	-57.4588	155.293	-38.7365	1.65586	165.596	-38.351	30.6914	176.872	-11.5454	5.90427	
2	0.0166667	175.823	18.698	17.2351	166.299	36.9406	-7.17223	158.065	54.0304	-32.3944	146.764	62.2104	-48.984	157.804	-7.04696	-56.8772	151.799	1.89681	-81.6369	136.587	6.23173	-103.191	142.232	-27.5169	-60.9399	129.001	-22.202	-85.8471	106.251	-15.1202	-109.299	129.352	-41.9253	-44.6649	117.447	-42.6492	-65.0601	96.8547	-39.3901	-86.929	117.155	-51.6063	-23.2032	99.7017	-58.1501	-36.9998	83.1848	-58.018	-52.9706	153.124	-43.8127	1.72271	161.753	-46.4725	29.765	178.922	-21.109	8.40288	
3	0.025	181.633	12.3371	14.3466	178.219	32.5332	-5.60399	169.801	47.1557	-34.6656	160.526	59.1253	-51.6899	163.627	-11.9091	-55.2629	154.839	-3.65384	-85.3378	141.201	0.71806	-104.906	141.49	-34.4294	-57.5642	127.695	-27.4973	-85.4496	108.579	-17.1322	-106.933	129.938	-43.7372	-46.4753	114.221	-44.3574	-68.283	97.2133	-36.2991	-87.7779	114.782	-50.6889	-21.945	98.2187	-54.8422	-35.7845	76.2842	-52.4344	-54.867	154.399	-47.0185	1.53886	159.299	-47.9701	33.384	180.415	-25.0317	5.21248	
4	0.0333333	186.492	4.78342	13.4211	184.423	23.5031	-6.3185	180.763	39.3979	-33.8342	171.583	50.9037	-53.2298	164.185	-20.0215	-57.9828	160.96	-11.5971	-82.7489	146.287	-4.97336	-104.152	146.482	-36.1132	-55.0748	130.637	-28.9618	-85.5884	115.09	-17.4296	-107.368	129.893	-44.2577	-41.4096	115.231	-42.9877	-69.4965	97.0498	-35.37	-89.75	111.437	-50.0051	-18.8906	92.6011	-52.8717	-39.8379	73.7478	-46.1857	-54.8577	151.444	-50.5869	5.85954	154.795	-55.2398	34.8387	176.791	-35.1021	11.3944	
5	0.0416667	188.107	-3.02305	13.5859	188.281	14.0672	-6.02183	188.502	29.8434	-29.2185	183.091	41.7823	-50.2565	168.138	-23.9231	-56.0629	159.555	-18.9931	-83.3268	155.058	-5.97641	-107.809	143.868	-40.7529	-54.1563	131.83	-33.9531	-82.347	119.683	-17.8539	-106.505	128.211	-45.4125	-44.9346	113.316	-45.0914	-65.9659	101.344	-33.1665	-87.3367	106.204	-49.7228	-21.7282	93.3344	-48.9164	-38.2539	70.6885	-41.1321	-56.8473	143.054	-55.1276	5.09181	150.809	-55.8767	32.5649	174.047	-41.335	8.79766	
6	0.05	188.414	-9.58912	16.2606	196.539	9.34001	-4.22976	198.16	25.6928	-31.7798	192.913	38.5356	-49.7575	168.986	-29.2618	-55.0145	167.404	-20.8884	-83.4886	156.052	-12.979	-104.978	146.803	-41.7726	-55.497	136.083	-33.1378	-82.6307	122.921	-16.0701	-107.757	124.429	-46.946	-43.7024	112.675	-42.9314	-65.8409	100.637	-31.5356	-87.0756	108.507	-45.7287	-20.9367	88.2159	-43.8914	-39.0363	71.9621	-33.7962	-58.1879	144.916	-56.0891	7.63436	150.004	-56.4614	35.2187	174.731	-44.4968	10.4639	
7	0.0583333	190.654	-11.359	20.6954	196.464	7.67072	-4.01435	197.07	24.0305	-29.8451	191.342	36.8897	-50.8872	172.441	-32.1001	-55.2729	166.022	-24.1306	-84.1158	160.383	-13.6848	-107.702	145.061	-42.9061	-56.6984	137.195	-33.1239	-84.0587	121.971	-14.9972	-110.587	123.878	-46.3919	-44.6656	112.453	-41.9275	-67.4422	105.644	-29.8081	-88.9482	108.856	-45.5133	-20.5907	93.2635	-43.1018	-39.0324	74.2217	-33.3944	-58.1372	143.955	-58.2505	3.22178	148.467	-58.7672	37.2332	177.182	-46.9235	13.4614	
8	0.0666667	187.216	-11.8064	16.0214	194.732	10.1862	-3.50646	192.269	25.7346	-27.3767	185.633	40.1025	-47.5816	171.625	-31.9331	-56.1089	170.341	-24.492	-83.1356	163.378	-15.4893	-103.501	146.419	-43.1783	-55.9322	137.633	-31.3529	-86.1511	129.533	-15.7247	-106.96	129.639	-45.7285	-42.5264	118.433	-40.648	-66.7141	105.445	-27.2187	-91.8996	108.024	-45.6264	-23.0144	94.5433	-40.4358	-43.2917	76.5863	-30.4568	-56.4922	140.62	-59.4534	5.09865	144.566	-59.4816	34.3253	173.963	-47.4232	14.8654	
9	0.075	190.408	-11.2059	19.9449	192.086	12.6502	-4.39325	189.123	28.7779	-27.8048	177.418	41.2597	-49.3163	171.217	-33.6507	-55.8943	173.904	-24.1669	-79.8322	165.11	-12.494	-105.503	150.151	-42.6458	-59.342	139.768	-31.4087	-86.4044	132.262	-15.0776	-108.51	129.446	-45.9216	-42.909	120.438	-39.9602	-67.573	108.876	-26.0785	-91.0072	106.599	-45.135	-23.2949	94.5309	-39.3951	-43.5995	82.0674	-27.7007	-61.468	145.023	-55.3011	6.44067	144.108	-58.5654	32.992	173.231	-50.1945	15.7772	
10	0.0833333	186.816	-12.8302	16.897	189.614	13.8398	-8.07938	181.673	31.5802	-31.0324	161.929	38.3102	-48.9124	174.659	-34.4209	-52.3222	173.811	-23.5825	-83.3954	164.306	-15.075	-102.889	148.287	-43.5584	-57.6616	139.565	-34.8157	-83.052	130.988	-13.9058	-107.247	127.826	-46.1296	-46.2699	119.606	-39.5604	-68.5835	109.57	-23.2292	-90.3283	106.627	-42.9166	-24.372	96.6526	-35.5267	-45.096	84.511	-17.7696	-64.0638	144.864	-56.1754	8.23953	145.984	-59.7701	36.7926	173.339	-48.5753	16.3158	
11	0.0916667	187.135	-11.1432	21.7111	180.491	10.6429	-5.54997	165.893	26.8658	-34.0589	142.79	30.3541	-47.873	176.716	-33.94	-53.824	172.609	-25.0338	-81.593	165.98	-10.8753	-103.394	153.11	-43.8474	-53.9829	142.674	-33.2952	-84.1086	136.272	-10.4368	-106.809	130.811	-45.9507	-45.1734	120.774	-36.9045	-68.0011	113.252	-13.7711	-88.5821	112.94	-39.7087	-29.9933	99.5395	-27.0513	-48.3854	91.8379	-5.50012	-59.4927	142.519	-57.4789	4.35286	146.127	-58.7347	36.0074	177.164	-48.5128	12.8691	
12	0.1	188.092	-10.5766	20.283	175.042	10.0305	-7.28801	157.042	21.2006	-29.5692	132.796	20.0406	-42.268	178.268	-36.2628	-55.5468	172.585	-26.1011	-80.5818	169.922	-11.8253	-99.0887	154.54	-45.189	-58.1313	142.261	-31.7674	-84.3617	135.634	-8.1037	-103.118	134.028	-45.2146	-46.0792	121.115	-31.9674	-69.6691	118.609	-6.27083	-83.8599	114.24	-37.8718	-29.82	108.013	-21.4185	-47.466	104.771	3.96293	-55.4201	146.119	-59.3538	6.2697	147.094	-57.9916	36.1117	179.216	-51.7422	17.5201	
13	0.108333	183.887	-12.2881	18.3945	171.691	10.8481	-8.43257	151.325	16.7803	-30.3025	127.968	16.4187	-39.8288	175.404	-36.3251	-51.8496	171.48	-26.0163	-80.0727	166.124	-7.67148	-102.486	151.349	-46.7733	-52.6825	144.463	-34.2664	-81.4888	134.542	-5.21225	-103.201	131.856	-44.8518	-46.2572	127.749	-30.5889	-68.4145	117.924	-5.30988	-78.3447	114.548	-37.1401	-26.2471	108.272	-16.3745	-46.2305	108.874	5.60523	-51.1939	147.618	-57.5846	9.59047	148.039	-58.0355	35.4241	181.01	-51.2462	17.7259	
